<svg xmlns="http://www.w3.org/2000/svg" version="1.1" xmlns:xlink="http://www.w3.org/1999/xlink" xmlns:svgjs="http://svgjs.com/svgjs" height="66.99999453937689" width="291.88999938964844"><defs id="SvgjsDefs1092"></defs><g id="SvgjsG1093" rel="mainfill" name="main_text" xmlns:name="main_text" transform="translate(81.38999998569489,-210.47500120443266)" fill="#ffffff"><path d="M26.60 237.90C26.00 237.25 25.35 236.61 25.00 235.76L16.69 214.22L11.09 215.39L2.32 235.69C1.85 236.72 1.43 237.08 0.61 237.86C0.61 238.64 0.61 239.39 0.78 240L10.52 240C10.73 239.29 10.73 238.36 10.73 237.68L8.17 236.93C7.60 236.75 6.85 236.40 6.85 235.19C6.85 234.79 6.92 234.37 7.10 233.83L8.38 230.44L16.33 230.44L17.54 234.15C17.72 234.65 17.83 235.01 17.83 235.47C17.83 236.18 17.47 236.72 16.65 237.00L14.76 237.68C14.76 238.68 14.80 239.25 15.08 240L26.35 240C26.57 239.29 26.60 238.75 26.60 237.90ZM15.37 227.48L9.52 227.48L11.55 222.06L12.55 219.10L12.77 219.10L13.62 222.17ZM50.67 230.02C50.67 221.85 47.04 220.14 42.04 220.14C40.44 220.14 38.62 220.89 37.30 222.24L37.30 221.64C37.30 220.64 36.73 220.07 35.73 220.07C33.06 220.07 30.13 220.53 28.53 220.92L28.53 223.49L31.52 223.49L31.52 230.44L31.38 243.03C31.38 243.82 31.02 244.81 29.78 245.17L28.42 245.60C28.42 246.28 28.31 246.85 28.60 247.85L41.58 247.85C41.90 246.67 41.79 246.35 41.79 245.46L39.30 244.89C38.41 244.67 37.83 244.64 37.83 243.46L37.76 240.25C38.26 240.29 38.87 240.29 39.65 240.29C45.18 240.29 50.67 238.18 50.67 230.02ZM44.36 230.66C44.36 234.33 42.93 237.43 39.83 237.43C38.73 237.43 38.16 237.29 37.66 237.18L37.51 230.51L37.51 224.31C38.23 224.10 39.40 223.85 40.51 223.85C43.04 223.85 44.36 226.45 44.36 230.66ZM74.71 230.02C74.71 221.85 71.07 220.14 66.08 220.14C64.47 220.14 62.65 220.89 61.33 222.24L61.33 221.64C61.33 220.64 60.76 220.07 59.77 220.07C57.09 220.07 54.17 220.53 52.56 220.92L52.56 223.49L55.56 223.49L55.56 230.44L55.42 243.03C55.42 243.82 55.06 244.81 53.81 245.17L52.46 245.60C52.46 246.28 52.35 246.85 52.63 247.85L65.61 247.85C65.93 246.67 65.83 246.35 65.83 245.46L63.33 244.89C62.44 244.67 61.87 244.64 61.87 243.46L61.80 240.25C62.30 240.29 62.90 240.29 63.69 240.29C69.22 240.29 74.71 238.18 74.71 230.02ZM68.40 230.66C68.40 234.33 66.97 237.43 63.87 237.43C62.76 237.43 62.19 237.29 61.69 237.18L61.55 230.51L61.55 224.31C62.26 224.10 63.44 223.85 64.54 223.85C67.08 223.85 68.40 226.45 68.40 230.66ZM88.83 237.75L86.47 237.08C85.98 236.93 85.94 236.18 85.90 235.47L85.87 230.23L85.87 214.47C85.87 213.04 85.16 212.76 83.98 212.76C82.23 212.76 78.77 213.04 76.92 213.50L76.92 216.18L79.88 216.18L79.88 230.23L79.77 235.93C79.77 236.83 79.59 237.15 78.91 237.33L76.81 237.90C76.81 238.89 76.74 239.14 76.95 240L88.61 240C88.79 239.29 88.83 239.00 88.83 237.75ZM109.44 231.05L109.44 229.30C109.44 224.27 107.12 219.99 100.67 219.99C94.36 219.99 90.47 225.63 90.47 230.73C90.47 238.57 94.64 240.46 101.31 240.46C103.59 240.46 106.59 239.61 109.08 238.25L108.08 235.11C105.45 235.69 103.48 235.76 102.20 235.76C99.10 235.76 96.85 234.62 96.67 231.05ZM103.23 228.45L96.50 228.45C96.50 225.91 97.67 223.13 100.03 223.13C102.45 223.13 103.23 225.45 103.23 228.45ZM122.17 230.94L122.17 227.70L112.15 228.16L112.15 230.94ZM163.68 216.93C163.68 216.11 163.71 215.50 163.50 214.79L155.16 214.79C154.87 215.64 154.94 216.43 154.94 217.11L156.19 217.57C156.76 217.78 157.40 218.46 157.40 219.57C157.40 219.96 157.33 220.42 157.12 220.96L152.37 233.15L148.09 220.64C147.95 220.17 147.88 219.75 147.88 219.39C147.88 218.64 148.20 218.10 149.02 217.64C149.02 217.64 149.56 217.28 150.02 217.11C150.02 216.50 150.06 216.11 150.06 215.79C150.06 215.43 150.02 215.18 149.84 214.79L139.71 214.79C139.61 215.47 139.64 216.04 139.64 216.89C140.07 217.57 140.43 218.21 140.71 219.00L141.11 220.14L141.82 222.17L136.72 233.15L133.37 220.64C133.22 220.14 133.12 219.67 133.12 219.25C133.12 218.50 133.40 217.93 134.26 217.64L135.86 217.11C135.86 216.75 135.90 216.39 135.90 216.00C135.90 215.61 135.86 215.22 135.83 214.79L124.35 214.79C124.13 215.50 124.17 216.04 124.17 216.89L125.24 217.61C125.84 218.00 126.24 218.53 126.38 219.03L132.83 240.96L137.25 239.68L143.42 226.56L148.70 240.96L153.16 239.71L161.68 219.10C162.04 218.32 162.43 217.78 163.04 217.36ZM182.90 231.05L182.90 229.30C182.90 224.27 180.58 219.99 174.13 219.99C167.81 219.99 163.93 225.63 163.93 230.73C163.93 238.57 168.10 240.46 174.77 240.46C177.05 240.46 180.05 239.61 182.54 238.25L181.54 235.11C178.90 235.69 176.94 235.76 175.66 235.76C172.56 235.76 170.31 234.62 170.13 231.05ZM176.69 228.45L169.95 228.45C169.95 225.91 171.13 223.13 173.48 223.13C175.91 223.13 176.69 225.45 176.69 228.45ZM196.88 237.75L194.52 237.08C194.02 236.93 193.99 236.18 193.95 235.47L193.92 230.23L193.92 214.47C193.92 213.04 193.20 212.76 192.03 212.76C190.28 212.76 186.82 213.04 184.97 213.50L184.97 216.18L187.93 216.18L187.93 230.23L187.82 235.93C187.82 236.83 187.64 237.15 186.96 237.33L184.86 237.90C184.86 238.89 184.79 239.14 185.00 240L196.66 240C196.84 239.29 196.88 239.00 196.88 237.75ZM210.50 237.75L208.15 237.08C207.65 236.93 207.61 236.18 207.58 235.47L207.54 230.23L207.54 214.47C207.54 213.04 206.83 212.76 205.65 212.76C203.90 212.76 200.44 213.04 198.59 213.50L198.59 216.18L201.55 216.18L201.55 230.23L201.44 235.93C201.44 236.83 201.26 237.15 200.59 237.33L198.48 237.90C198.48 238.89 198.41 239.14 198.62 240L210.29 240C210.46 239.29 210.50 239.00 210.50 237.75Z" fill="#ffffff" style="fill: rgb(255, 255, 255);"></path></g><g id="SvgjsG1094" rel="mainfill" name="slogan_text" xmlns:name="slogan_text" transform="translate(86.48776888847351,-178.92499815267485)" fill="#ffffff"><path d="M3.72 233.74L3.72 228.40L7.90 228.40C9.13 228.40 9.77 229.39 9.77 231.17C9.77 232.77 9.13 233.74 7.82 233.74ZM3.72 240L3.72 235.39L8.26 235.39C10.89 235.39 11.90 233.36 11.90 231.19C11.90 228.76 11.05 226.77 8.18 226.77L1.78 226.77L1.78 240ZM21.14 238.23C20.36 238.50 19.09 238.69 18.41 238.69C16.45 238.69 15.56 238.14 15.54 235.56L22.09 235.56C22.19 231.17 20.91 230.11 18.03 230.11C15.20 230.11 13.63 231.33 13.63 235.14C13.63 239.09 15.35 240.27 18.20 240.27C19.11 240.27 20.50 240.04 21.48 239.73ZM18.11 231.61C19.66 231.61 20.21 232.05 20.31 234.10L15.56 234.10C15.71 232.18 16.36 231.61 18.11 231.61ZM29.87 236.81C29.00 234.61 28.09 232.50 27.08 230.38L24.35 230.38L24.35 240L26.13 240L26.13 232.24C27.10 234.40 28.20 237.17 29.02 239.37L30.50 239.37C31.28 237.21 32.42 234.46 33.46 232.24L33.46 240L35.22 240L35.22 230.38L32.59 230.38C31.60 232.48 30.73 234.57 29.87 236.81ZM42.17 240.27C45.23 240.27 46.65 239.09 46.65 235.14C46.65 231.21 45.21 230.11 42.17 230.11C39.15 230.11 37.69 231.21 37.69 235.14C37.69 239.09 39.13 240.27 42.17 240.27ZM42.17 231.65C44.13 231.65 44.75 232.16 44.75 235.18C44.75 238.06 44.13 238.73 42.17 238.73C40.22 238.73 39.59 238.06 39.59 235.18C39.59 232.16 40.22 231.65 42.17 231.65ZM55.40 235.62L55.40 240L57.20 240L57.20 230.38L55.40 230.38L55.40 234.08L50.92 234.08L50.92 230.38L49.12 230.38L49.12 240L50.92 240L50.92 235.62ZM64.07 231.97L67.60 231.97L67.60 230.38L58.72 230.38L58.72 231.97L62.27 231.97L62.27 240L64.07 240ZM78.48 231.97L82.01 231.97L82.01 230.38L73.13 230.38L73.13 231.97L76.67 231.97L76.67 240L78.48 240ZM90.76 238.23C89.98 238.50 88.71 238.69 88.02 238.69C86.07 238.69 85.18 238.14 85.16 235.56L91.71 235.56C91.80 231.17 90.53 230.11 87.64 230.11C84.82 230.11 83.24 231.33 83.24 235.14C83.24 239.09 84.97 240.27 87.82 240.27C88.73 240.27 90.11 240.04 91.10 239.73ZM87.72 231.61C89.28 231.61 89.83 232.05 89.92 234.10L85.18 234.10C85.33 232.18 85.97 231.61 87.72 231.61ZM102.11 240C101.12 238.48 99.94 236.75 98.75 235.12C99.96 233.49 101.12 231.82 102.09 230.38L100.04 230.38C99.41 231.35 98.65 232.52 97.74 233.74C96.87 232.52 95.98 231.35 95.20 230.38L92.94 230.38C94.10 231.73 95.46 233.45 96.74 235.20C95.46 236.89 94.12 238.63 92.92 240L94.99 240C95.86 238.94 96.77 237.78 97.70 236.55C98.56 237.76 99.37 238.96 100.02 240ZM110.12 235.62L110.12 240L111.92 240L111.92 230.38L110.12 230.38L110.12 234.08L105.64 234.08L105.64 230.38L103.83 230.38L103.83 240L105.64 240L105.64 235.62ZM121.03 240L122.81 240L122.81 230.38L121.03 230.38C119.62 232.81 118.03 235.35 116.47 237.36L116.47 230.38L114.67 230.38L114.67 240L116.47 240C118.03 237.99 119.70 235.62 121.03 233.28ZM133.93 240C131.64 235.67 130.73 235.16 129.70 234.76C130.27 234.36 131.64 232.86 133.67 230.38L131.49 230.38C129.72 232.48 128.16 234.25 127.37 235.01L127.37 230.38L125.58 230.38L125.58 240L127.37 240L127.37 235.41C128.62 235.65 129.93 236.39 131.81 240ZM141.70 240L143.48 240L143.48 230.38L141.70 230.38C140.29 232.81 138.70 235.35 137.14 237.36L137.14 230.38L135.34 230.38L135.34 240L137.14 240C138.70 237.99 140.37 235.62 141.70 233.28ZM160.87 240L163.03 240C161.49 236.41 159.57 231.14 158.15 226.77L155.02 226.77C153.29 230.97 151.51 235.82 150.12 240L152.12 240C152.50 238.80 152.89 237.57 153.31 236.32L159.44 236.32C159.92 237.65 160.43 238.90 160.87 240ZM156.77 228.37C157.39 230.38 158.11 232.58 158.87 234.67L153.86 234.67C154.62 232.52 155.42 230.40 156.23 228.37ZM166.08 232.05C166.69 231.82 167.55 231.71 168.34 231.71C170.30 231.71 170.94 232.24 170.94 235.20C170.94 237.97 170.30 238.69 168.34 238.69C167.11 238.69 166.08 238.27 166.08 237.53ZM164.30 243.64L166.08 243.64L166.08 239.58C166.58 239.92 167.34 240.27 168.55 240.27C171.34 240.27 172.82 239.09 172.82 235.16C172.82 231.23 171.42 230.11 168.34 230.11C167.07 230.11 165.34 230.40 164.30 230.83ZM177.09 232.05C177.70 231.82 178.55 231.71 179.35 231.71C181.31 231.71 181.95 232.24 181.95 235.20C181.95 237.97 181.31 238.69 179.35 238.69C178.12 238.69 177.09 238.27 177.09 237.53ZM175.31 243.64L177.09 243.64L177.09 239.58C177.59 239.92 178.35 240.27 179.56 240.27C182.35 240.27 183.83 239.09 183.83 235.16C183.83 231.23 182.43 230.11 179.35 230.11C178.08 230.11 176.35 230.40 175.31 230.83ZM188.10 226.30L186.32 226.30L186.32 237.49C186.32 238.90 186.68 239.66 187.42 240.42L188.94 239.58C188.31 238.88 188.10 238.35 188.10 237.42ZM198.18 238.23C197.40 238.50 196.13 238.69 195.45 238.69C193.49 238.69 192.60 238.14 192.58 235.56L199.13 235.56C199.22 231.17 197.95 230.11 195.07 230.11C192.24 230.11 190.66 231.33 190.66 235.14C190.66 239.09 192.39 240.27 195.24 240.27C196.15 240.27 197.53 240.04 198.52 239.73ZM195.14 231.61C196.70 231.61 197.25 232.05 197.34 234.10L192.60 234.10C192.75 232.18 193.40 231.61 195.14 231.61Z" fill="#ffffff" style="fill: rgb(255, 255, 255);"></path></g><g id="SvgjsG1095" rel="mainfill" name="symbol" xmlns:name="symbol_mainfill" transform="translate(-2.286739342330709,-2.286740707486482) scale(0.715734793672393)" fill="#ffffff"><g fill="#ffffff"><path d="M24.8,13.6l4.9,5c4.1-2.6,8.7-4.5,13.6-5.4l0.1-7c0-1.7,1.4-3.1,3.1-3l8.4,0.1c1.7,0,3.1,1.4,3,3.1l-0.1,7   c4.9,1,9.4,3,13.4,5.8l5-4.9c1.2-1.2,3.2-1.2,4.4,0.1l5.9,6c1.2,1.2,1.2,3.2-0.1,4.4l-5,4.9c2.6,4.1,4.5,8.7,5.4,13.6l7,0.1   c1.7,0,3.1,1.4,3,3.1l-0.1,8.4c0,1.7-1.4,3.1-3.1,3l-7-0.1c-0.6,2.9-1.6,5.7-2.8,8.3l-8-8c0.8-2.4,1.2-5,1.2-7.7   C77.3,35.5,65.3,23.2,50.4,23C35.5,22.7,23.2,34.7,23,49.6C22.7,64.5,34.7,76.8,49.6,77c2.6,0,5.1-0.3,7.4-0.9l8.1,8.1   c-2.7,1.2-5.5,2.1-8.4,2.6l-0.1,7c0,1.7-1.4,3.1-3.1,3l-8.4-0.1c-1.7,0-3.1-1.4-3-3.1l0.1-7c-4.9-1-9.4-3-13.4-5.8l-5,4.9   c-1.2,1.2-3.2,1.2-4.4-0.1l-5.9-6c-1.2-1.2-1.2-3.2,0.1-4.4l5-4.9c-2.6-4.1-4.5-8.7-5.4-13.6l-7-0.1c-1.7,0-3.1-1.4-3-3.1l0.1-8.4   c0-1.7,1.4-3.1,3.1-3l7,0.1c1-4.9,3-9.4,5.8-13.4l-4.9-5c-1.2-1.2-1.2-3.2,0.1-4.4l6-5.9C21.6,12.3,23.6,12.3,24.8,13.6z    M32.3,45.7c-1.5,6.1,0.1,12.7,4.8,17.5c3.9,3.9,9.1,5.7,14.2,5.3c3-0.2,5.9,0.8,8,2.9l15.9,15.9c1.1,1.1,2.8,1.1,3.9,0l2.1-2.1   L62.3,66.3c-0.9-0.9-1-2.3-0.3-3.2c0.9-1.1,2.5-1.1,3.5-0.2l19,19l2.1-2.1c1.1-1.1,1.1-2.8,0-3.9L71.4,60.7c-2.2-2.2-3.3-5.4-3-8.5   c0.6-5.4-1.1-11-5.2-15.1c-5-5-12.2-6.5-18.6-4.5c-0.4,0.1-0.5,0.7-0.2,1l7.8,7.8c2.2,2.2,2.2,5.9,0,8.1l-3.4,3.4   c-2.2,2.2-5.9,2.2-8.1,0l-7.4-7.4C33,45.1,32.4,45.3,32.3,45.7z" fill="#ffffff" style="fill: rgb(255, 255, 255);"></path></g></g></svg>